<?xml version="1.0" encoding="iso-8859-1"?>
<!-- Generator: Adobe Illustrator 19.0.0, SVG Export Plug-In . SVG Version: 6.00 Build 0)  -->
<svg version="1.1" id="Capa_1" xmlns="http://www.w3.org/2000/svg" xmlns:xlink="http://www.w3.org/1999/xlink" x="0px" y="0px"
	 viewBox="0 0 512 512" style="enable-background:new 0 0 512 512;" xml:space="preserve">
<path style="fill:#10BB67;" d="M512,77.002v296.697c0,38.399-27.001,71.397-62.4,77.398c-4.199,0.601-8.399,0.901-12.599,0.901
	c-17.701,0-34.799-6.301-48.599-18.001c-16.8-14.099-26.4-35.099-26.4-56.998V77.302c0-32.1,19.501-62.299,48.299-72.5
	c9-3.3,17.701-4.799,26.7-4.799c15.3,0,30.3,4.499,43.2,13.799C499.999,27.901,512,52.702,512,77.002z"/>
<path style="fill:#FEC478;" d="M376.1,327.498c-26.997,57.3-86.799,94.5-150.097,94.5h-28.297l-44.702,51.898
	c0,0-0.297,0.601-0.897,1.199c-3.604-7.5-7.2-14.7-7.2-14.7s-19.204-38.399-38.401-76.799l-33.303-66.598
	c2.102-3.9,3.303-6.601,3.303-6.601l49.196-98.398l9.302-18.6c12.898-25.501,38.401-41.4,67.199-41.4c0,0,69.799,0,106.999,0
	c14.099,0,24.001,0,24.001,0l14.7,59.999l14.7,59.999L376.1,327.498z"/>
<path style="fill:#0CA656;" d="M512,77.002v296.697c0,38.399-27.001,71.397-62.4,77.398c-4.199,0.601-8.399,0.901-12.599,0.901
	V0.003c15.3,0,30.3,4.499,43.2,13.799C499.999,27.901,512,52.702,512,77.002z"/>
<path style="fill:#FE9923;" d="M437.001,92.001c-74.442,0-134.998,60.556-134.998,134.998c0,69.306,52.684,125.91,119.999,133.482
	v1.516h30v-1.516V93.517C447.01,92.955,442.136,92.001,437.001,92.001z"/>
<path style="fill:#FEDBAB;" d="M392.001,242c0,16.199-13.198,29.7-29.399,30c-0.3,0-0.3,0-0.601,0h-95.697
	c-10.503,20.7-22.702,42.9-43.703,53.698l-116.095,57.899l-33.303-66.598c2.102-3.9,3.303-6.601,3.303-6.601L125.703,212h236.299
	C378.502,212,392.001,225.5,392.001,242z"/>
<path style="fill:#17ACE8;" d="M91.587,503.706l-44.999-89.999L1.588,323.708c-3.706-7.412-0.703-16.421,6.709-20.127l30-15l30-15
	c7.404-3.694,16.394-0.713,20.127,6.709l44.999,89.999l44.999,89.999c3.706,7.412,0.703,16.421-6.709,20.127l-30,15l-30,15
	C104.252,514.12,95.29,511.092,91.587,503.706z"/>
<path style="fill:#1689FC;" d="M91.587,503.706c3.702,7.385,12.664,10.413,20.127,6.709l30-15l30-15
	c7.412-3.706,10.415-12.715,6.709-20.127l-44.999-89.999l-86.835,43.417L91.587,503.706z"/>
<path style="fill:#08469C;" d="M452,77.002v299.996c0,8.399-6.599,15-15,15s-15-6.601-15-15V77.002c0-8.401,6.599-15,15-15
	S452,68.601,452,77.002z"/>
<path style="fill:#063E8B;" d="M452,77.002v299.996c0,8.399-6.599,15-15,15V62.002C445.401,62.002,452,68.601,452,77.002z"/>
<g>
</g>
<g>
</g>
<g>
</g>
<g>
</g>
<g>
</g>
<g>
</g>
<g>
</g>
<g>
</g>
<g>
</g>
<g>
</g>
<g>
</g>
<g>
</g>
<g>
</g>
<g>
</g>
<g>
</g>
</svg>
