<?xml version="1.0" encoding="UTF-8"?><svg id="a" xmlns="http://www.w3.org/2000/svg" xmlns:xlink="http://www.w3.org/1999/xlink" viewBox="0 0 2723.36 1926.87"><defs><style>.e{fill:#0d55a1;}.f{fill:#ffb800;}.g,.h,.i{fill:#fff;}.j{fill:#ffc329;}.k{fill:#2969ac;}.l{fill:#a5a5a5;}.h{opacity:.38;}.m,.n,.o{fill:#dee8f2;}.m,.p{opacity:.45;}.i{opacity:.4;}.q{opacity:.24;}.q,.r{fill:#4d79fc;}.s{fill:#2163a9;}.t{fill:#ffd1ba;}.u{fill:#004c9c;}.v{fill:#fe961a;}.o{opacity:.51;}.w{fill:#ffe1f3;}.x,.y{fill:#fff7f8;}.a`{fill:#ffb7bc;}.aa{fill:#ffd128;}.ab{fill:gray;}.ac{fill:#ffd0b8;}.ad{clip-path:url(#b);}.ae{clip-path:url(#c);}.af{fill:#c8c8c8;}.ag{fill:#e8eff6;}.ah{clip-path:url(#d);}.ai{fill:#396afc;}.aj{fill:none;}.ak{fill:#ff7a83;}.y{opacity:.54;}.al{fill:#ffbabf;}.am{fill:#ff9661;}.an{fill:#ffc4a6;}.ao{opacity:.17;}.ap{fill:#1f61a8;}.aq{fill:#bfd2e6;}</style><clipPath id="b"><path class="aj" d="M311.2,1451.1s-94.93-89.38-79.59-284.65c15.34-195.27,437.53-204.4,298.86-372.53-83.63-101.4-46.5-389.21,217.67-347.88,111.28,17.41,330.63,229.37,627.54,29.03,57.8-39,164.26-108.28,352.89-108.28s166.16,240.38,358.41,240.38,376.72,158.72,376.72,335.75-254.49,335.51,10.59,432.94c265.08,97.43-2163.08,75.24-2163.08,75.24Z"/></clipPath><clipPath id="c"><circle class="aj" cx="1082.94" cy="1283.03" r="84.23"/></clipPath><clipPath id="d"><path class="n" d="M1037.77,1066.95c.28,2.52,.53,5.17-.42,7.52-.69,1.69-1.95,3.07-3.18,4.42-8.32,9.06-16.63,18.11-24.95,27.17-5.48,5.97-11.39,12.21-19.21,14.36-2.77,.76-5.83,.94-8.42-.3-3.9-1.86-5.79-6.53-5.74-10.85,.21-18.96,28.14-28.05,29.28-46.98,.21-3.49-.57-6.98-1.71-10.29-4.43-12.87-14.51-23.68-27.05-28.98,13.09,.5,36.9-5.52,47.64,2.23,10.96,7.91,12.46,29.73,13.77,41.7Z"/></clipPath></defs><g><g><path class="g" d="M311.2,1451.1s-94.93-89.38-79.59-284.65c15.34-195.27,437.53-204.4,298.86-372.53-83.63-101.4-46.5-389.21,217.67-347.88,111.28,17.41,330.63,229.37,627.54,29.03,57.8-39,164.26-108.28,352.89-108.28s166.16,240.38,358.41,240.38,376.72,158.72,376.72,335.75-254.49,335.51,10.59,432.94c265.08,97.43-2163.08,75.24-2163.08,75.24Z"/><path class="g" d="M1139.63,536.96c47.84,0,199.83-49.53,157.54-95.25-42.29-45.72-414.61-15.24-334.19,38.1,80.43,53.34,148.63,57.15,176.65,57.15Z"/><path class="g" d="M2018.52,568.28c37.82,20.22,158.42,26.86,141.58-36.63-16.85-63.48-239.56-171.93-223.08-71.53,12.88,78.48,59.35,96.31,81.5,108.16Z"/><path class="g" d="M512.13,866.65c-9.98,48.32-178.99,177.32-195.4,70.53-16.41-106.79,42.25-320.55,97.03-265.8,54.78,54.74,109.14,143.14,98.37,195.28Z"/></g><g><path class="ag" d="M2158.5,726.04c-588.66,137.38-619.22,400.37-580.87,551.26,19.94,78.47,90.08,134.54,171.01,136.72,155.63,4.18,405.45-83.52,409.86-687.98Z"/><g><path class="ag" d="M2135.04,755.38l-478.16,598.1,478.16-598.1Z"/><path class="ag" d="M1965.59,1233.79l-247.27,42.83,247.27-42.83Z"/><path class="ag" d="M1736.2,1254.26l-24.94-223.8,24.94,223.8Z"/><path class="ag" d="M2048.81,1078.13l-190.83,23.81,190.83-23.81Z"/><path class="ag" d="M1888.14,1064.21l-37.77-144.72,37.77,144.72Z"/><path class="ag" d="M1988.69,938.44l117.34-32.17-117.34,32.17Z"/><path class="ag" d="M2000.98,923.07l-9.25-94.44,9.25,94.44Z"/></g></g><path class="ag" d="M825.13,1444.99s-202.43-195.93-285.52-359.38c-83.09-163.44,77.04-20.04,122.47,27.46,0,0-76.17-152.15-27.69-165.56,48.48-13.41,83.67,128.91,83.67,128.91,0,0-24.85-153.32,48.3-153.1,73.14,.22,163.75,381.2,58.77,521.66Z"/><path class="ag" d="M1217.85,1496.61s183.74-262.12,241.32-462.34c57.58-200.22-90.27-5.8-130.74,56.96,0,0,52.28-186.13-4.69-190.67-56.98-4.54-65.65,161.82-65.65,161.82,0,0-5.23-176.4-86.79-160.44-81.56,15.96-100.77,460.52,46.55,594.67Z"/><g class="ao"><path class="j" d="M311.2,1451.1s-94.93-89.38-79.59-284.65c15.34-195.27,437.53-204.4,298.86-372.53-83.63-101.4-46.5-389.21,217.67-347.88,111.28,17.41,330.63,229.37,627.54,29.03,57.8-39,164.26-108.28,352.89-108.28s166.16,240.38,358.41,240.38,376.72,158.72,376.72,335.75-254.49,335.51,10.59,432.94c265.08,97.43-2163.08,75.24-2163.08,75.24Z"/><path class="j" d="M1139.63,536.96c47.84,0,199.83-49.53,157.54-95.25-42.29-45.72-414.61-15.24-334.19,38.1,80.43,53.34,148.63,57.15,176.65,57.15Z"/><path class="j" d="M2018.52,568.28c37.82,20.22,158.42,26.86,141.58-36.63-16.85-63.48-239.56-171.93-223.08-71.53,12.88,78.48,59.35,96.31,81.5,108.16Z"/><path class="j" d="M512.13,866.65c-9.98,48.32-178.99,177.32-195.4,70.53-16.41-106.79,42.25-320.55,97.03-265.8,54.78,54.74,109.14,143.14,98.37,195.28Z"/></g></g><g class="p"><g class="ad"><g><path class="ap" d="M211.07,242.36H0V0H211.07V242.36ZM1.71,240.64H209.36V1.71H1.71V240.64Z"/><path class="ap" d="M420.43,242.36H209.36V0h211.07V242.36Zm-209.36-1.71h207.64V1.71H211.07V240.64Z"/><path class="ap" d="M629.79,242.36h-211.07V0h211.07V242.36Zm-209.36-1.71h207.64V1.71h-207.64V240.64Z"/><path class="ap" d="M839.14,242.36h-211.07V0h211.07V242.36Zm-209.36-1.71h207.64V1.71h-207.64V240.64Z"/><path class="ap" d="M1048.5,242.36h-211.07V0h211.07V242.36Zm-209.36-1.71h207.64V1.71h-207.64V240.64Z"/><path class="ap" d="M1257.86,242.36h-211.07V0h211.07V242.36Zm-209.36-1.71h207.64V1.71h-207.64V240.64Z"/><path class="ap" d="M1467.21,242.36h-211.07V0h211.07V242.36Zm-209.36-1.71h207.64V1.71h-207.64V240.64Z"/><path class="ap" d="M1676.57,242.36h-211.07V0h211.07V242.36Zm-209.36-1.71h207.64V1.71h-207.64V240.64Z"/><path class="ap" d="M1885.93,242.36h-211.07V0h211.07V242.36Zm-209.36-1.71h207.64V1.71h-207.64V240.64Z"/><path class="ap" d="M2095.29,242.36h-211.07V0h211.07V242.36Zm-209.36-1.71h207.64V1.71h-207.64V240.64Z"/><path class="ap" d="M2304.64,242.36h-211.07V0h211.07V242.36Zm-209.36-1.71h207.64V1.71h-207.64V240.64Z"/><path class="ap" d="M2514,242.36h-211.07V0h211.07V242.36Zm-209.36-1.71h207.64V1.71h-207.64V240.64Z"/><path class="ap" d="M2723.36,242.36h-211.07V0h211.07V242.36Zm-209.36-1.71h207.64V1.71h-207.64V240.64Z"/><path class="ap" d="M211.07,483H0V240.64H211.07v242.36Zm-209.36-1.71H209.36V242.36H1.71v238.93Z"/><path class="ap" d="M420.43,483H209.36V240.64h211.07v242.36Zm-209.36-1.71h207.64V242.36H211.07v238.93Z"/><path class="ap" d="M629.79,483h-211.07V240.64h211.07v242.36Zm-209.36-1.71h207.64V242.36h-207.64v238.93Z"/><path class="ap" d="M839.14,483h-211.07V240.64h211.07v242.36Zm-209.36-1.71h207.64V242.36h-207.64v238.93Z"/><path class="ap" d="M1048.5,483h-211.07V240.64h211.07v242.36Zm-209.36-1.71h207.64V242.36h-207.64v238.93Z"/><path class="ap" d="M1257.86,483h-211.07V240.64h211.07v242.36Zm-209.36-1.71h207.64V242.36h-207.64v238.93Z"/><path class="ap" d="M1467.21,483h-211.07V240.64h211.07v242.36Zm-209.36-1.71h207.64V242.36h-207.64v238.93Z"/><path class="ap" d="M1676.57,483h-211.07V240.64h211.07v242.36Zm-209.36-1.71h207.64V242.36h-207.64v238.93Z"/><path class="ap" d="M1885.93,483h-211.07V240.64h211.07v242.36Zm-209.36-1.71h207.64V242.36h-207.64v238.93Z"/><path class="ap" d="M2095.29,483h-211.07V240.64h211.07v242.36Zm-209.36-1.71h207.64V242.36h-207.64v238.93Z"/><path class="ap" d="M2304.64,483h-211.07V240.64h211.07v242.36Zm-209.36-1.71h207.64V242.36h-207.64v238.93Z"/><path class="ap" d="M2514,483h-211.07V240.64h211.07v242.36Zm-209.36-1.71h207.64V242.36h-207.64v238.93Z"/><path class="ap" d="M2723.36,483h-211.07V240.64h211.07v242.36Zm-209.36-1.71h207.64V242.36h-207.64v238.93Z"/><path class="ap" d="M211.07,723.65H0v-242.36H211.07v242.36Zm-209.36-1.71H209.36v-238.93H1.71v238.93Z"/><path class="ap" d="M420.43,723.65H209.36v-242.36h211.07v242.36Zm-209.36-1.71h207.64v-238.93H211.07v238.93Z"/><path class="ap" d="M629.79,723.65h-211.07v-242.36h211.07v242.36Zm-209.36-1.71h207.64v-238.93h-207.64v238.93Z"/><path class="ap" d="M839.14,723.65h-211.07v-242.36h211.07v242.36Zm-209.36-1.71h207.64v-238.93h-207.64v238.93Z"/><path class="ap" d="M1048.5,723.65h-211.07v-242.36h211.07v242.36Zm-209.36-1.71h207.64v-238.93h-207.64v238.93Z"/><path class="ap" d="M1257.86,723.65h-211.07v-242.36h211.07v242.36Zm-209.36-1.71h207.64v-238.93h-207.64v238.93Z"/><path class="ap" d="M1467.21,723.65h-211.07v-242.36h211.07v242.36Zm-209.36-1.71h207.64v-238.93h-207.64v238.93Z"/><path class="ap" d="M1676.57,723.65h-211.07v-242.36h211.07v242.36Zm-209.36-1.71h207.64v-238.93h-207.64v238.93Z"/><path class="ap" d="M1885.93,723.65h-211.07v-242.36h211.07v242.36Zm-209.36-1.71h207.64v-238.93h-207.64v238.93Z"/><path class="ap" d="M2095.29,723.65h-211.07v-242.36h211.07v242.36Zm-209.36-1.71h207.64v-238.93h-207.64v238.93Z"/><path class="ap" d="M2304.64,723.65h-211.07v-242.36h211.07v242.36Zm-209.36-1.71h207.64v-238.93h-207.64v238.93Z"/><path class="ap" d="M2514,723.65h-211.07v-242.36h211.07v242.36Zm-209.36-1.71h207.64v-238.93h-207.64v238.93Z"/><path class="ap" d="M2723.36,723.65h-211.07v-242.36h211.07v242.36Zm-209.36-1.71h207.64v-238.93h-207.64v238.93Z"/><path class="ap" d="M211.07,964.29H0v-242.36H211.07v242.36Zm-209.36-1.71H209.36v-238.93H1.71v238.93Z"/><path class="ap" d="M420.43,964.29H209.36v-242.36h211.07v242.36Zm-209.36-1.71h207.64v-238.93H211.07v238.93Z"/><path class="ap" d="M629.79,964.29h-211.07v-242.36h211.07v242.36Zm-209.36-1.71h207.64v-238.93h-207.64v238.93Z"/><path class="ap" d="M839.14,964.29h-211.07v-242.36h211.07v242.36Zm-209.36-1.71h207.64v-238.93h-207.64v238.93Z"/><path class="ap" d="M1048.5,964.29h-211.07v-242.36h211.07v242.36Zm-209.36-1.71h207.64v-238.93h-207.64v238.93Z"/><path class="ap" d="M1257.86,964.29h-211.07v-242.36h211.07v242.36Zm-209.36-1.71h207.64v-238.93h-207.64v238.93Z"/><path class="ap" d="M1467.21,964.29h-211.07v-242.36h211.07v242.36Zm-209.36-1.71h207.64v-238.93h-207.64v238.93Z"/><path class="ap" d="M1676.57,964.29h-211.07v-242.36h211.07v242.36Zm-209.36-1.71h207.64v-238.93h-207.64v238.93Z"/><path class="ap" d="M1885.93,964.29h-211.07v-242.36h211.07v242.36Zm-209.36-1.71h207.64v-238.93h-207.64v238.93Z"/><path class="ap" d="M2095.29,964.29h-211.07v-242.36h211.07v242.36Zm-209.36-1.71h207.64v-238.93h-207.64v238.93Z"/><path class="ap" d="M2304.64,964.29h-211.07v-242.36h211.07v242.36Zm-209.36-1.71h207.64v-238.93h-207.64v238.93Z"/><path class="ap" d="M2514,964.29h-211.07v-242.36h211.07v242.36Zm-209.36-1.71h207.64v-238.93h-207.64v238.93Z"/><path class="ap" d="M2723.36,964.29h-211.07v-242.36h211.07v242.36Zm-209.36-1.71h207.64v-238.93h-207.64v238.93Z"/><path class="ap" d="M211.07,1204.93H0v-242.36H211.07v242.36Zm-209.36-1.71H209.36v-238.93H1.71v238.93Z"/><path class="ap" d="M420.43,1204.93H209.36v-242.36h211.07v242.36Zm-209.36-1.71h207.64v-238.93H211.07v238.93Z"/><path class="ap" d="M629.79,1204.93h-211.07v-242.36h211.07v242.36Zm-209.36-1.71h207.64v-238.93h-207.64v238.93Z"/><path class="ap" d="M839.14,1204.93h-211.07v-242.36h211.07v242.36Zm-209.36-1.71h207.64v-238.93h-207.64v238.93Z"/><path class="ap" d="M1048.5,1204.93h-211.07v-242.36h211.07v242.36Zm-209.36-1.71h207.64v-238.93h-207.64v238.93Z"/><path class="ap" d="M1257.86,1204.93h-211.07v-242.36h211.07v242.36Zm-209.36-1.71h207.64v-238.93h-207.64v238.93Z"/><path class="ap" d="M1467.21,1204.93h-211.07v-242.36h211.07v242.36Zm-209.36-1.71h207.64v-238.93h-207.64v238.93Z"/><path class="ap" d="M1676.57,1204.93h-211.07v-242.36h211.07v242.36Zm-209.36-1.71h207.64v-238.93h-207.64v238.93Z"/><path class="ap" d="M1885.93,1204.93h-211.07v-242.36h211.07v242.36Zm-209.36-1.71h207.64v-238.93h-207.64v238.93Z"/><path class="ap" d="M2095.29,1204.93h-211.07v-242.36h211.07v242.36Zm-209.36-1.71h207.64v-238.93h-207.64v238.93Z"/><path class="ap" d="M2304.64,1204.93h-211.07v-242.36h211.07v242.36Zm-209.36-1.71h207.64v-238.93h-207.64v238.93Z"/><path class="ap" d="M2514,1204.93h-211.07v-242.36h211.07v242.36Zm-209.36-1.71h207.64v-238.93h-207.64v238.93Z"/><path class="ap" d="M2723.36,1204.93h-211.07v-242.36h211.07v242.36Zm-209.36-1.71h207.64v-238.93h-207.64v238.93Z"/><path class="ap" d="M211.07,1445.58H0v-242.36H211.07v242.36Zm-209.36-1.71H209.36v-238.93H1.71v238.93Z"/><path class="ap" d="M420.43,1445.58H209.36v-242.36h211.07v242.36Zm-209.36-1.71h207.64v-238.93H211.07v238.93Z"/><path class="ap" d="M629.79,1445.58h-211.07v-242.36h211.07v242.36Zm-209.36-1.71h207.64v-238.93h-207.64v238.93Z"/><path class="ap" d="M839.14,1445.58h-211.07v-242.36h211.07v242.36Zm-209.36-1.71h207.64v-238.93h-207.64v238.93Z"/><path class="ap" d="M1048.5,1445.58h-211.07v-242.36h211.07v242.36Zm-209.36-1.71h207.64v-238.93h-207.64v238.93Z"/><path class="ap" d="M1257.86,1445.58h-211.07v-242.36h211.07v242.36Zm-209.36-1.71h207.64v-238.93h-207.64v238.93Z"/><path class="ap" d="M1467.21,1445.58h-211.07v-242.36h211.07v242.36Zm-209.36-1.71h207.64v-238.93h-207.64v238.93Z"/><path class="ap" d="M1676.57,1445.58h-211.07v-242.36h211.07v242.36Zm-209.36-1.71h207.64v-238.93h-207.64v238.93Z"/><path class="ap" d="M1885.93,1445.58h-211.07v-242.36h211.07v242.36Zm-209.36-1.71h207.64v-238.93h-207.64v238.93Z"/><path class="ap" d="M2095.29,1445.58h-211.07v-242.36h211.07v242.36Zm-209.36-1.71h207.64v-238.93h-207.64v238.93Z"/><path class="ap" d="M2304.64,1445.58h-211.07v-242.36h211.07v242.36Zm-209.36-1.71h207.64v-238.93h-207.64v238.93Z"/><path class="ap" d="M2514,1445.58h-211.07v-242.36h211.07v242.36Zm-209.36-1.71h207.64v-238.93h-207.64v238.93Z"/><path class="ap" d="M2723.36,1445.58h-211.07v-242.36h211.07v242.36Zm-209.36-1.71h207.64v-238.93h-207.64v238.93Z"/><path class="ap" d="M211.07,1686.22H0v-242.36H211.07v242.36Zm-209.36-1.71H209.36v-238.93H1.71v238.93Z"/><path class="ap" d="M420.43,1686.22H209.36v-242.36h211.07v242.36Zm-209.36-1.71h207.64v-238.93H211.07v238.93Z"/><path class="ap" d="M629.79,1686.22h-211.07v-242.36h211.07v242.36Zm-209.36-1.71h207.64v-238.93h-207.64v238.93Z"/><path class="ap" d="M839.14,1686.22h-211.07v-242.36h211.07v242.36Zm-209.36-1.71h207.64v-238.93h-207.64v238.93Z"/><path class="ap" d="M1048.5,1686.22h-211.07v-242.36h211.07v242.36Zm-209.36-1.71h207.64v-238.93h-207.64v238.93Z"/><path class="ap" d="M1257.86,1686.22h-211.07v-242.36h211.07v242.36Zm-209.36-1.71h207.64v-238.93h-207.64v238.93Z"/><path class="ap" d="M1467.21,1686.22h-211.07v-242.36h211.07v242.36Zm-209.36-1.71h207.64v-238.93h-207.64v238.93Z"/><path class="ap" d="M1676.57,1686.22h-211.07v-242.36h211.07v242.36Zm-209.36-1.71h207.64v-238.93h-207.64v238.93Z"/><path class="ap" d="M1885.93,1686.22h-211.07v-242.36h211.07v242.36Zm-209.36-1.71h207.64v-238.93h-207.64v238.93Z"/><path class="ap" d="M2095.29,1686.22h-211.07v-242.36h211.07v242.36Zm-209.36-1.71h207.64v-238.93h-207.64v238.93Z"/><path class="ap" d="M2304.64,1686.22h-211.07v-242.36h211.07v242.36Zm-209.36-1.71h207.64v-238.93h-207.64v238.93Z"/><path class="ap" d="M2514,1686.22h-211.07v-242.36h211.07v242.36Zm-209.36-1.71h207.64v-238.93h-207.64v238.93Z"/><path class="ap" d="M2723.36,1686.22h-211.07v-242.36h211.07v242.36Zm-209.36-1.71h207.64v-238.93h-207.64v238.93Z"/><path class="ap" d="M211.07,1926.87H0v-242.36H211.07v242.36Zm-209.36-1.71H209.36v-238.93H1.71v238.93Z"/><path class="ap" d="M420.43,1926.87H209.36v-242.36h211.07v242.36Zm-209.36-1.71h207.64v-238.93H211.07v238.93Z"/><path class="ap" d="M629.79,1926.87h-211.07v-242.36h211.07v242.36Zm-209.36-1.71h207.64v-238.93h-207.64v238.93Z"/><path class="ap" d="M839.14,1926.87h-211.07v-242.36h211.07v242.36Zm-209.36-1.71h207.64v-238.93h-207.64v238.93Z"/><path class="ap" d="M1048.5,1926.87h-211.07v-242.36h211.07v242.36Zm-209.36-1.71h207.64v-238.93h-207.64v238.93Z"/><path class="ap" d="M1257.86,1926.87h-211.07v-242.36h211.07v242.36Zm-209.36-1.71h207.64v-238.93h-207.64v238.93Z"/><path class="ap" d="M1467.21,1926.87h-211.07v-242.36h211.07v242.36Zm-209.36-1.71h207.64v-238.93h-207.64v238.93Z"/><path class="ap" d="M1676.57,1926.87h-211.07v-242.36h211.07v242.36Zm-209.36-1.71h207.64v-238.93h-207.64v238.93Z"/><path class="ap" d="M1885.93,1926.87h-211.07v-242.36h211.07v242.36Zm-209.36-1.71h207.64v-238.93h-207.64v238.93Z"/><path class="ap" d="M2095.29,1926.87h-211.07v-242.36h211.07v242.36Zm-209.36-1.71h207.64v-238.93h-207.64v238.93Z"/><path class="ap" d="M2304.64,1926.87h-211.07v-242.36h211.07v242.36Zm-209.36-1.71h207.64v-238.93h-207.64v238.93Z"/><path class="ap" d="M2514,1926.87h-211.07v-242.36h211.07v242.36Zm-209.36-1.71h207.64v-238.93h-207.64v238.93Z"/><path class="ap" d="M2723.36,1926.87h-211.07v-242.36h211.07v242.36Zm-209.36-1.71h207.64v-238.93h-207.64v238.93Z"/></g></g></g><g><path class="g" d="M923.96,1455.09c-509.27,0-704.29,3.5-704.32,92.81,0,32.39,83.83,36.49,97.54,38.45,52.36,7.48,104.73,18.86,151.63,54.89,40.75,31.31,73.16,76.65,118.74,94.34,57.53,22.34,125.59,29.22,185.22,29.3,94.47,.11,184.32-38.8,277.71-48.2,92.53-9.32,192.46-8.13,284.97,2.08,105.62,11.66,209.63,50.99,315.58,47.89,76.39-2.23,151.36-26.49,225.64-50.63,87.96-28.58,193.24-88.75,283.65-74.01,81.92,13.35,165.58,10.42,248.24,3.49,67.66-5.67,187.08-9.29,187.08-134.54,0-136.51-272.96-118.83-651.6-118.83s-636.21,62.93-1020.08,62.93Z"/><path class="q" d="M923.96,1455.09c-509.27,0-704.29,3.5-704.32,92.81,0,32.39,83.83,36.49,97.54,38.45,52.36,7.48,104.73,18.86,151.63,54.89,40.75,31.31,73.16,76.65,118.74,94.34,57.53,22.34,125.59,29.22,185.22,29.3,94.47,.11,184.32-38.8,277.71-48.2,92.53-9.32,192.46-8.13,284.97,2.08,105.62,11.66,209.63,50.99,315.58,47.89,76.39-2.23,151.36-26.49,225.64-50.63,87.96-28.58,193.24-88.75,283.65-74.01,81.92,13.35,165.58,10.42,248.24,3.49,67.66-5.67,187.08-9.29,187.08-134.54,0-136.51-272.96-118.83-651.6-118.83s-636.21,62.93-1020.08,62.93Z"/></g><g><g><path class="t" d="M1660.31,968.86s-5.37-8.29-12.02-12.73c-.95-.64-2.51-.03-2.38,.94,.53,4.05,3.03,11.83,14.4,11.79Z"/><path class="t" d="M1668.35,976.22c-3.44-5.79-8.19-9.01-21.95-13.11-8.43-2.51-26.77-4.73-27.53-2.54-1.48,4.25,14.26,3.43,13.57,6.32-.69,2.88-17.39-.44-18.12,3.26-.73,3.71,16.88,.74,17.4,3.77s-16.69,2.22-15.62,5.26c1.07,3.03,18.25-1.3,18.7,.76,.45,2.05-11.9,3.65-10.5,5.65,.85,1.22,10.35-.28,18.83-2.22,5.43-1.24,10.44-2.67,12.52-3.68,5.32-2.59,7.75-.09,7.75-.09,0,0,9.17,3.73,4.96-3.36Z"/></g><path class="an" d="M1793.87,1262.35s-3.96,72.19,2.86,86.33c0,0,14.14,17.21,35.69,2.33,0,0,21.7-74.05,19.12-93.4l-57.67,4.74Z"/><path class="an" d="M1833.61,1469.22c-.8-28.54,14.91-80.48-1.2-118.22l-35.69-2.33s16.46,101.15,18.56,135.21c1.72,27.98-7.42,29.86-14.49,34.9-.3,9.48,9.79,11.9,38.86-8.3-.25-.57-5-4.03-6.04-41.26Z"/><path class="ac" d="M1827.97,1269.44s8.21,71.83,17.3,84.62c0,0,15,14.2,33.75-4.08,0,0,10.79-76.25,5-94.9l-56.05,14.35Z"/><path class="ac" d="M1931.32,1472.73c-2.15-2.14-5.72-6.58-8.68-13.57-11.13-26.3-14.74-93.06-44.71-118.33l-34.17,10.56,66.98,128c4.57,11.41,5.94,23.31,.97,34.51,3.1,8.96,13.83,12.91,20.94-39.8-.44-.45-.89-.92-1.33-1.36Z"/><path class="s" d="M1824.82,855.86l-62.05,79.02s-14.73,23.21,10.33,23.32c0,0,49.14-23.9,83.92-90.2,1.09-2.07,1.83-4.31,2.19-6.62,1.41-8.85,1.6-27.98-27.96-11.09-2.48,1.41-4.67,3.32-6.43,5.56Z"/><path class="s" d="M1793.65,943.74s-6.28,12.7-21.38,23.2c-9.42,6.55-20.49,6.76-27.73,9.61-14.34,5.65-41.63,6.22-83.92,4.59l-1.26-14.18s70.27-13.38,99.93-27.18c4.39-2.04,9.42-1.87,11.23-6.36,1.51-3.76,4.38-10.37,5.72-15.59l17.42,25.91Z"/><path class="ai" d="M1858.27,835.56c-12.49,7.41-26.21,30.47-46.84,45.25-7.95,5.69-12.02,15.51-10.26,25.13,1.63,8.89,6.13,18.72,17.34,24.14,0,0,9.17,103.87-26.43,166.07,0,0,52.13,24.07,106.11-31.61,0,0-23.45-27.69-8.28-108.78,0,0,30.2-101.51,1.07-122.42-12.38-8.89-24.2-2.84-32.73,2.21Z"/><path class="t" d="M1873.98,801.91s4,15.01-6.06,29.33c0,0,9.95,7.42,19.74-1.1l5.72-43.04-19.41,14.81Z"/><path class="t" d="M1892.18,776.65c8.4-57.92-36.47-51.79-36.47-51.79-22.51,24.45-19.44,64.41-19.44,64.41,4.29,52.38,52.73,2.91,52.73,2.91h0s27.68-11.41,3.18-15.53Z"/><path class="u" d="M1889.51,779.55s-6.52-6.04-7.7-16.73c-.76-6.83,4.06-14.88-1.52-22.63-3.21-4.45-6.49-8.71-11.97-8.51-7.72,.28-18.58,1.78-22.53,7.75,0,0-4.47-5.2-4.81-11.48,0,0,2.22-43.7,40.75-33.27,0,0,14.29,1.17,11.81,18.79,0,0-5.49,13.87,20.36,10.95,0,0,40.38,.91,22.48,58.29,0,0,1.62,35.61,39.72,33.36,0,0,47.64,2.82,16.84,47.4,0,0-7.55,10.16,8.72,6.34,0,0,32.81,7.86-14.26,22.26,0,0-4.54,.13-17.12-1.32,0,0-5.96,.04-1.47,10.4,0,0-17.47,35.03-47.52-5.73,0,0-6.83-6.23-2.84-20.37,0,0,7.08-16.39-17.57-17.67,0,0-32.19-4.91-11.86-65.18,0,0,18.44-15.8,.51-12.63Z"/><path class="s" d="M1882.29,892.39l49.9,87.21s15.97,22.37,25.5-.8c0,0-3.68-54.52-52.03-111.68-1.51-1.78-3.31-3.31-5.31-4.52-7.67-4.63-25.33-12.01-20.79,21.74,.38,2.83,1.32,5.58,2.73,8.05Z"/><g><path class="am" d="M1805.05,1493.63c13.8,1,27.81-.79,40.91-5.23-9.43-27.05-8.3-56.47-7.06-85.09,3.68-84.95,7.35-169.9,11.03-254.84,1.79-40.6,6.84-82.78,4.9-123.28-26.06,7.9-23.61,3.01-40.74,3.01-11.69,24.89-32.52,74.8-33.87,102.51-3.72,76.78,8.44,154.24,16.34,230.39,4.57,44.04,8.37,88.22,8.48,132.53Z"/><path class="am" d="M1885.21,1018.21c5.83,39.4,34.41,73.59,30.42,114.93-2.06,21.33-12.7,40.41-17.73,61-5.07,20.76-8.4,43.56-10.51,64.84-2.83,28.6-.5,57.69,6.79,85.49,9.34,35.63,27.9,68.71,39.08,103.82-7.91,3.26-9.24,7.36-14.43,13.38-6.1,7.08-15.47,12.28-23.86,16.12-34.82-72.25-67.63-147.54-70.34-227.69-1.16-34.24,3.75-68.44,2.94-102.69-.96-40.27-4.66-79.89-13.47-119.21,26.47,1.9,45.4-6.92,71.11-9.99Z"/></g><g><path class="s" d="M1799.79,1529.52s-15.24-23.1,4.91-23.96c20.15-.86,22,14.5,22,14.5l33.12-3.2-.98,4.79-59.05,7.87Z"/><circle class="aa" cx="1799.42" cy="1505.2" r="4.89"/></g><g><path class="s" d="M1899.12,1520.14s-6.52-21.65,8.72-22.86c21.91-1.74,19.37,17.86,19.37,17.86l33.2,2.19-1.74,4.57-59.54-1.77Z"/><path class="aa" d="M1911.94,1497.87c0,2.7-2.19,4.89-4.89,4.89s-4.89-2.19-4.89-4.89,2.19-4.89,4.89-4.89,4.89,2.19,4.89,4.89Z"/></g><path class="s" d="M1957.69,978.79s-1.19,14.12-11.4,29.43c-6.37,9.55-16.59,13.8-22.28,19.1-11.27,10.51-36.46,21.04-76.4,35.02l-6.37-12.73s60.48-38.2,83.03-61.9c3.34-3.51,8.08-5.19,8.12-10.03,.03-4.05,.27-11.25-.39-16.6l25.7,17.72Z"/></g><path class="u" d="M2099.31,1534.07l-186.77-400.54h149.01c5.48,0,9.92-4.44,9.92-9.92h0c0-5.48-4.44-9.92-9.92-9.92h-623.81v19.84h182.28l-186.77,400.54c-1.91,4.09-.14,8.95,3.95,10.86,4.09,1.91,8.95,.14,10.86-3.95l189.99-407.44h256.46l189.99,407.44c1.91,4.09,6.77,5.86,10.86,3.95,4.09-1.91,5.86-6.77,3.95-10.86Z"/><path class="aa" d="M1691.31,1119.07c.72,9.79,1.14,20.39-2.67,29.3-4.6,10.77-10.64,20.86-15.23,31.63-14.75,34.64-12.84,73.8-10.67,111.39l6.01,104.3c11.64-.66,23.26-1.51,34.87-2.58-3.21,.29-3.5-90.47-3.11-98.68,.81-16.84,2.29-33.66,4.46-50.38,.74-5.71,.31-17.98,5.27-20.14,2.96-1.29,9.46-.05,12.78-.17,4.24-.16,8.48-.41,12.72-.75-1.16-10.74,8.11-21.44,18.91-21.82,10.79-.38,20.79,9.65,20.39,20.44,5.96-.18,11.91-.62,17.83-1.31,3.38-.39,13.47-3.8,16.3-2.29,2.89,1.55,5.11,10.51,6.15,13.48,1.75,4.99,3.07,10.13,4.03,15.33,3.94,21.25,1.95,43.23-1.79,64.36-5.57,31.49-14.8,62.82-13.27,94.77,15.34-6.59,31.6-11.02,48.16-13.12-12.16-44.38,9.45-91.4,4.49-137.15-2.89-26.65-14.56-51.23-24.39-75.83-4.8-12.02-9.34-24.21-12.23-36.84-1.37-6.01-2.21-12.12-2.61-18.27-.24-3.25-.59-7.12-.25-10.32-4.5-.52-9.3-.15-13.85-.2-4.64-.05-9.27-.09-13.91-.13-9.15-.08-18.3-.14-27.45-.19-23.77-.13-47.54-.15-71.31-.08,.13,1.71,.27,3.46,.4,5.24Z"/><g><polygon class="l" points="1718.17 1115.97 1854.24 1115.97 1845.56 1099.55 1750.02 1099.55 1718.17 1115.97"/><polygon class="ab" points="1718.17 1115.97 1854.24 1115.97 1851.89 1111.28 1729.9 1111.28 1718.17 1115.97"/><rect class="g" x="1751.02" y="1087.82" width="93.84" height="11.73" transform="translate(3595.87 2187.36) rotate(180)"/><polygon class="af" points="1844.86 1087.82 1844.86 1099.55 1751.02 1099.55 1844.86 1087.82"/><path class="ab" d="M1751.02,1087.82h93.84l4.69-39.88-75.07,18.77-23.46,21.11Zm84.45-7.04h-65.69l7.04-9.38,63.34-11.73-4.69,21.11Z"/></g><path class="h" d="M1700.09,1099.41c-.65-2.2-1-4.9-3.05-5.91-1.86-.91-4.42,.54-4.59,2.6,.6-2.93,1.2-5.93,.81-8.9-.39-2.97-1.97-5.95-4.68-7.22-2.71-1.27-6.52-.19-7.53,2.63,.44-4.41-3.9-8.81-8.24-7.91-4.34,.9-6.34,7.42-2.95,10.27-4.52-1.49-9.39-1.92-14.11-1.27-.65,.09-1.34,.22-1.85,.63-1.25,.99-.9,2.94-.43,4.47,.63,2.04,1.41,4.28,3.27,5.33,1.86,1.05,4.93-.26,4.54-2.36-1.15,3.36-.35,7.32,2,9.98,2.35,2.67,6.17,3.94,9.65,3.22-1.79,3.93-3.24,8.02-4.3,12.2-.46,1.81-.83,3.81,.02,5.46,1.53,2.97,5.71,2.95,9.01,2.5,.24-.72,.22-1.53-.07-2.23,3.77,1.96,8.88,.81,11.45-2.58-1.46,5.25,1.85,11.35,7.04,13,5.19,1.65,11.41-1.44,13.24-6.57-1.16-.53-2.45-1.01-3.69-.7-1.24,.31-2.25,1.75-1.65,2.88,.58,1.09,2.11,1.15,3.33,.99,5.23-.66,11.07-3.3,12.15-8.46,.21-1,.24-2.09,.84-2.92,.82-1.14,2.38-1.39,3.78-1.5,3.91-.32,7.85-.3,11.75,.06-7.32-2.21-14.77-3.82-22.04-5.97-5.95-1.75-11.86-5.46-13.71-11.73Z"/><g><path class="t" d="M1837.61,1052.57s-10.62-4.7-17.47-3.95c0,0,8.69,10.91,17.47,3.95Z"/><path class="t" d="M1848.29,1052.62c-6.79-2.34-12.67-2.18-25.91,2.01-8.11,2.56-23.39,10.43-22.36,12.38,2,3.77,13.12-4.91,14.71-2.51,1.59,2.4-13.27,8.64-11.12,11.64,2.16,3.01,13.11-8.17,15.7-6.28,2.59,1.89-10.81,10.17-7.8,11.77,3,1.6,12.65-10.32,14.48-9.09,1.83,1.22-6.2,8.72-3.7,9.41,1.52,.43,7.51-5.53,12.4-11.27,3.14-3.68,5.83-7.27,6.64-9.06,2.07-4.58,5.71-4.06,5.71-4.06,0,0,9.55-2.08,1.24-4.94Z"/></g><g><path class="am" d="M362.42,1134.8c187.32,97.03,175.07,188.61,149.14,236.36-13.48,24.83-42.02,37.77-69.59,31.56-53-11.95-129.98-63.07-79.56-267.92Z"/><g><rect class="g" x="421.24" y="1134.82" width="3.55" height="267.24" transform="translate(-486.13 287.97) rotate(-24.4)"/><rect class="aq" x="422.77" y="1297.2" width="2.56" height="87.58" transform="translate(-973.28 1181.16) rotate(-65.93)"/><rect class="aq" x="434.43" y="1311.69" width="78.59" height="2.56" transform="translate(-921.96 1293.69) rotate(-69.37)"/><rect class="g" x="398.76" y="1241.99" width="3.56" height="67.12" transform="translate(-933.28 1184.02) rotate(-68.64)"/><rect class="g" x="411.33" y="1247.78" width="52.2" height="3.55" transform="translate(-867.94 1028.74) rotate(-61.11)"/><rect class="g" x="381.37" y="1189.53" width="3.55" height="42.46" transform="translate(-858.96 946.35) rotate(-60.42)"/><rect class="g" x="387.84" y="1197.63" width="33.12" height="3.55" transform="translate(-861.07 1173.02) rotate(-70.17)"/></g></g><g><path class="r" d="M2571.64,1216.41c60.22,202.18-14.21,256.95-66.57,271.44-27.23,7.53-56.36-4.02-71.03-28.17-28.2-46.45-44.84-137.34,137.6-243.26Z"/><g><rect class="g" x="2383.92" y="1351.02" width="267.24" height="3.55" transform="translate(332.59 3195.11) rotate(-68.39)"/><rect class="aq" x="2464.75" y="1360.12" width="2.56" height="87.58" transform="translate(-330.57 922.95) rotate(-19.89)"/><rect class="g" x="2481.39" y="1418.44" width="78.59" height="3.55" transform="translate(-356.6 1116.7) rotate(-23.38)"/><rect class="g" x="2495.03" y="1308" width="3.55" height="67.12" transform="translate(-323.86 1062.94) rotate(-22.61)"/><rect class="g" x="2515.02" y="1348.29" width="52.2" height="3.55" transform="translate(-263.63 707.14) rotate(-15.07)"/><rect class="g" x="2529.59" y="1262.83" width="3.55" height="42.46" transform="translate(-239.71 669.42) rotate(-14.39)"/><rect class="g" x="2537.73" y="1289.7" width="33.12" height="3.55" transform="translate(-304.77 1156.9) rotate(-24.13)"/></g></g><g><path class="aa" d="M235.65,1273.15c232.47-2.59,267.97,92.86,267.47,152.73-.26,31.14-21.33,58.51-51.36,66.73-57.75,15.82-159.1,5.93-216.11-219.46Z"/><g><rect class="g" x="362.02" y="1224.52" width="3.55" height="294.51" transform="translate(-945.16 823.38) rotate(-52.42)"/><rect class="g" x="354.1" y="1440.06" width="96.52" height="3.55" transform="translate(-98.23 31.09) rotate(-3.94)"/><rect class="g" x="434.41" y="1345.55" width="3.55" height="86.61" transform="translate(-175.6 67.91) rotate(-7.42)"/><rect class="g" x="308.62" y="1388.56" width="73.97" height="3.55" transform="translate(-158.85 49.44) rotate(-6.66)"/><rect class="g" x="339.28" y="1344.18" width="57.53" height="3.55" transform="translate(-983.31 1693.66) rotate(-89.14)"/><rect class="g" x="293.37" y="1312.91" width="3.55" height="46.8" transform="translate(-1048.69 1595.01) rotate(-88.44)"/><rect class="g" x="308.17" y="1296.02" width="3.55" height="36.5" transform="translate(-183.83 57.46) rotate(-8.18)"/></g></g><g><rect class="r" x="884.99" y="1014.33" width="397.58" height="464.97"/><circle class="s" cx="1082.94" cy="1283.03" r="128.04"/><circle class="u" cx="1082.94" cy="1283.03" r="96.03" transform="translate(-590.05 1141.55) rotate(-45)"/><g class="ae"><g><path class="g" d="M1061.06,1365.56c5.68,1.52,11.64-.32,17.5-.85,7.83-.71,15.68,.94,23.54,.95,13.74,.02,27.42-5.19,37.66-14.35,10.24-9.15,16.96-22.17,18.47-35.82-8.77,2.08-15.96,8.11-23.47,13.09-6.37,4.22-13.17,7.76-19.95,11.3-5.66,2.95-11.41,5.94-17.66,7.27-5.18,1.11-10.53,1.03-15.82,1.25-8.86,.36-21.98,.36-29.44,5.04,.92,5.14,3.71,10.65,9.17,12.11Z"/><path class="am" d="M1017.89,1334.77c3.34,5.11,7.57,9.55,11.79,13.97-2.75-7.81-5.5-15.62-8.25-23.42-5.58-15.84-13.67-33.89-7.88-50.51-14.14,17.98-7.12,42.4,4.35,59.96Z"/><path class="ap" d="M1122,1307.06c-6.35,3.35-13.28,5.65-19.17,9.76-5.89,4.11-10.77,10.7-10.2,17.86,.18,2.3,.99,4.64,2.7,6.19,2.44,2.21,6.23,2.31,9.3,1.13,3.07-1.19,5.58-3.44,8.01-5.65,5.01-4.55,10.02-9.09,15.03-13.64,7.96-7.23,16.04-14.59,21.64-23.77,3.74-6.14,6.29-13.01,7.46-20.11,.8-4.86,2.36-13.2-.28-17.03-5.31,5.88-6.9,18.11-12.11,25.47-5.81,8.2-13.49,15.11-22.39,19.81Z"/><path class="aa" d="M1022.29,1323.8c.93,8.04,1.94,16.35,6.02,23.34,4.08,6.99,12.1,12.36,20.04,10.77,2.14-.43,4.36-1.53,5.15-3.56,1.36-3.5-2.15-6.81-5.06-9.19-16.01-13.05-25.08-34.18-23.48-54.77,.1-1.32,.17-2.85-.81-3.74-1.06-.97-2.87-.57-3.86,.47-.99,1.04-1.38,2.5-1.68,3.9-3.28,14.99-2.18,30.9,3.12,45.29l.57-12.51Z"/><path class="aa" d="M1134.02,1316.59c-7.31,5.04-13.51,11.67-18.06,19.29,9.83-1.45,18.84-6.13,27.64-10.74,5.41-2.83,10.92-5.75,15.12-10.18,8.02-8.46,9.93-20.99,9.73-32.64-.14-8.09-1.11-16.17-2.89-24.06-.38-1.7-1.17-3.74-2.91-3.92-2.29-.24-3.25,2.81-3.51,5.1-2.64,23.33-17.75,43.09-32.3,61.53-1.92,2.43-4.05,5.01-7.05,5.8l14.23-10.18Z"/><path class="am" d="M1094.47,1324.43c-1.13,6.18-2.53,12.72-6.89,17.25-6.73,7-17.96,6.75-27.46,4.74-6.11-1.29-12.22-3.16-17.32-6.75-12.09-8.53-15.89-24.75-16.33-39.54,5.86,11.18,12.48,23.12,23.93,28.43,9.75,4.53,21.11,3.31,31.72,1.58,2.09-.34,4.33-.69,6.27,.19,1.47,.66,2.56,1.95,3.52,3.25,1.94,2.62,3.57,5.48,4.83,8.48-6.12,2.28-12.57,3.65-19.09,4.05l16.82-21.68Z"/><path class="w" d="M1002.64,1265.53c-2.95,8.6-5.94,17.53-5.09,26.58,.56,6.04,2.81,11.79,5.04,17.43,2.86,7.24,5.71,14.49,8.57,21.73,.24-7.38-3.61-14.22-5.21-21.44-3.81-17.21,5.12-39.56,17.64-51.55,2.6,8.36,5.85,16.52,9.73,24.36,5.97,12.07,14.28,24.14,26.92,28.78,6.8,2.5,14.21,2.59,21.45,2.45,10.2-.19,20.39-.79,30.54-1.78-5.98,4.77-8.19,13.37-14.67,17.44-3.66,2.3-8.15,2.79-12.46,3.05-8.41,.51-16.85,.38-25.24-.39-5.19-.47-10.47-1.23-15.12-3.58-6.68-3.38-11.42-9.76-14.46-16.6-3.04-6.84-4.58-14.23-6.47-21.47-.55-2.12-2.2-4.79-4.2-3.91-.97,.42-1.4,1.53-1.74,2.53-1.74,5.16-3.35,10.35-4.84,15.58-5.45-25.25,5.98-47.76,15.75-70.26-1.27,2.92-14.3,3.62-17.56,7.57-4.71,5.7-6.2,16.54-8.57,23.45Z"/></g></g><g><path class="m" d="M1129.93,1271.4c0,3.79-3.07,6.86-6.86,6.86s-6.86-3.07-6.86-6.86,3.07-6.86,6.86-6.86,6.86,3.07,6.86,6.86Z"/><circle class="m" cx="1057.07" cy="1315.12" r="6"/><circle class="m" cx="1094.79" cy="1237.98" r="4.29"/><circle class="m" cx="1072.5" cy="1291.12" r="14.57" transform="translate(-372.66 2144.79) rotate(-80.86)"/><circle class="m" cx="1138.5" cy="1252.55" r="8.57"/></g><circle class="y" cx="1082.94" cy="1283.03" r="84.23"/><polygon class="ap" points="939.75 1124.67 899.31 1124.67 899.31 1042.12 980.18 1042.12 980.18 1083.4 939.75 1124.67"/><rect class="s" x="998.71" y="1042.12" width="259.44" height="82.55"/><g><path class="o" d="M1197.54,1082.56h38.66c-.44-10.31-8.92-18.53-19.33-18.53s-18.89,8.23-19.33,18.53Z"/><path class="o" d="M1197.68,1085.92c1.24,9.5,9.35,16.85,19.19,16.85s17.95-7.34,19.19-16.85h-38.38Z"/></g><path class="n" d="M1025.66,1110.35c0,3.26-2.64,5.9-5.9,5.9s-5.9-2.64-5.9-5.9,2.64-5.9,5.9-5.9,5.9,2.64,5.9,5.9Z"/><path class="n" d="M1054.3,1110.35c0,3.26-2.64,5.9-5.9,5.9s-5.9-2.64-5.9-5.9,2.64-5.9,5.9-5.9,5.9,2.64,5.9,5.9Z"/><path class="n" d="M1082.94,1110.35c0,3.26-2.64,5.9-5.9,5.9s-5.9-2.64-5.9-5.9,2.64-5.9,5.9-5.9,5.9,2.64,5.9,5.9Z"/><path class="n" d="M1111.58,1110.35c0,3.26-2.64,5.9-5.9,5.9s-5.9-2.64-5.9-5.9,2.64-5.9,5.9-5.9,5.9,2.64,5.9,5.9Z"/><path class="n" d="M1140.22,1110.35c0,3.26-2.64,5.9-5.9,5.9s-5.9-2.64-5.9-5.9,2.64-5.9,5.9-5.9,5.9,2.64,5.9,5.9Z"/><path class="n" d="M1168.86,1110.35c0,3.26-2.64,5.9-5.9,5.9s-5.9-2.64-5.9-5.9,2.64-5.9,5.9-5.9,5.9,2.64,5.9,5.9Z"/><g><rect class="n" x="1013.87" y="1053.06" width="40.43" height="1.71"/><rect class="n" x="1013.87" y="1060.64" width="40.43" height="1.71"/><rect class="n" x="1013.87" y="1068.22" width="40.43" height="1.71"/><rect class="n" x="1013.87" y="1075.8" width="40.43" height="1.71"/><rect class="n" x="1013.87" y="1083.38" width="40.43" height="1.71"/><rect class="n" x="1013.87" y="1090.96" width="40.43" height="1.71"/></g><g><rect class="n" x="1069.46" y="1053.06" width="99.4" height="1.71"/><rect class="n" x="1069.46" y="1060.64" width="99.4" height="1.71"/><rect class="n" x="1069.46" y="1068.22" width="99.4" height="1.71"/><rect class="n" x="1069.46" y="1075.8" width="99.4" height="1.71"/><rect class="n" x="1069.46" y="1083.38" width="99.4" height="1.71"/><rect class="n" x="1069.46" y="1090.96" width="99.4" height="1.71"/></g><rect class="s" x="1198.34" y="1435.49" width="60.65" height="33.69"/><path class="n" d="M1023.14,1280.5c-.79-7.91,.33-16.18,3.01-23.87,.72-1.91,1.57-3.77,2.36-5.67,.92-1.83,1.94-3.62,2.92-5.44,1.12-1.72,2.34-3.4,3.51-5.1l4.01-4.74c5.68-6.06,12.69-10.9,20.36-14.24,7.71-3.24,16.08-5.03,24.47-4.98l8.27,.06-5.87,5.74c-5.29,5.17-10.56,10.47-15.99,15.51-5.4,5.08-10.83,10.13-16.23,14.95l-15.87,14.22c-5.15,4.6-10.18,9.17-14.96,13.57Zm0,0c5.33-5.72,10.41-11.25,15.36-16.76l14.45-16.11c4.71-5.29,9.39-10.35,14.1-15.37,4.67-5.07,9.51-9.88,14.33-14.81l2.4,5.8c-7.5,.08-14.99,1.41-21.95,4.26-7,2.73-13.44,6.88-18.99,12.05l-3.98,4.08-3.58,4.46c-1.06,1.59-2.18,3.15-3.2,4.77-.9,1.69-1.88,3.36-2.73,5.09-3.4,6.97-5.41,14.57-6.23,22.54Z"/><rect class="u" x="885.41" y="1479.3" width="397.58" height="10.11"/></g><g><rect class="r" x="456.42" y="1014.33" width="397.58" height="464.97"/><circle class="s" cx="654.37" cy="1283.03" r="128.04"/><circle class="u" cx="654.37" cy="1283.03" r="96.03" transform="translate(-715.58 838.5) rotate(-45)"/><circle class="y" cx="654.37" cy="1283.03" r="84.23"/><polygon class="s" points="511.17 1124.67 470.74 1124.67 470.74 1042.12 551.61 1042.12 551.61 1083.4 511.17 1124.67"/><rect class="s" x="570.14" y="1042.12" width="259.44" height="82.55"/><g><path class="o" d="M768.97,1082.56h38.66c-.44-10.31-8.92-18.53-19.33-18.53s-18.89,8.23-19.33,18.53Z"/><path class="o" d="M769.11,1085.92c1.24,9.5,9.35,16.85,19.19,16.85s17.95-7.34,19.19-16.85h-38.38Z"/></g><path class="n" d="M597.09,1110.35c0,3.26-2.64,5.9-5.9,5.9s-5.9-2.64-5.9-5.9,2.64-5.9,5.9-5.9,5.9,2.64,5.9,5.9Z"/><path class="n" d="M625.73,1110.35c0,3.26-2.64,5.9-5.9,5.9s-5.9-2.64-5.9-5.9,2.64-5.9,5.9-5.9,5.9,2.64,5.9,5.9Z"/><path class="n" d="M654.37,1110.35c0,3.26-2.64,5.9-5.9,5.9s-5.9-2.64-5.9-5.9,2.64-5.9,5.9-5.9,5.9,2.64,5.9,5.9Z"/><path class="n" d="M683.01,1110.35c0,3.26-2.64,5.9-5.9,5.9s-5.9-2.64-5.9-5.9,2.64-5.9,5.9-5.9,5.9,2.64,5.9,5.9Z"/><path class="n" d="M711.65,1110.35c0,3.26-2.64,5.9-5.9,5.9s-5.9-2.64-5.9-5.9,2.64-5.9,5.9-5.9,5.9,2.64,5.9,5.9Z"/><path class="n" d="M740.29,1110.35c0,3.26-2.64,5.9-5.9,5.9s-5.9-2.64-5.9-5.9,2.64-5.9,5.9-5.9,5.9,2.64,5.9,5.9Z"/><g><rect class="n" x="585.3" y="1053.06" width="40.43" height="1.71"/><rect class="n" x="585.3" y="1060.64" width="40.43" height="1.71"/><rect class="n" x="585.3" y="1068.22" width="40.43" height="1.71"/><rect class="n" x="585.3" y="1075.8" width="40.43" height="1.71"/><rect class="n" x="585.3" y="1083.38" width="40.43" height="1.71"/><rect class="n" x="585.3" y="1090.96" width="40.43" height="1.71"/></g><g><rect class="n" x="640.89" y="1053.06" width="99.4" height="1.71"/><rect class="n" x="640.89" y="1060.64" width="99.4" height="1.71"/><rect class="n" x="640.89" y="1068.22" width="99.4" height="1.71"/><rect class="n" x="640.89" y="1075.8" width="99.4" height="1.71"/><rect class="n" x="640.89" y="1083.38" width="99.4" height="1.71"/><rect class="n" x="640.89" y="1090.96" width="99.4" height="1.71"/></g><rect class="s" x="769.77" y="1435.49" width="60.65" height="33.69"/><path class="n" d="M594.56,1280.5c-.79-7.91,.33-16.18,3.01-23.87,.72-1.91,1.57-3.77,2.36-5.67,.92-1.83,1.94-3.62,2.92-5.44,1.12-1.72,2.34-3.4,3.51-5.1l4.01-4.74c5.68-6.06,12.69-10.9,20.36-14.24,7.71-3.24,16.08-5.03,24.47-4.98l8.27,.06-5.87,5.74c-5.29,5.17-10.56,10.47-15.99,15.51-5.4,5.08-10.83,10.13-16.23,14.95l-15.87,14.22c-5.15,4.6-10.18,9.17-14.96,13.57Zm0,0c5.33-5.72,10.41-11.25,15.36-16.76l14.45-16.11c4.71-5.29,9.39-10.35,14.1-15.37,4.67-5.07,9.51-9.88,14.33-14.81l2.4,5.8c-7.5,.08-14.99,1.41-21.95,4.26-7,2.73-13.44,6.88-18.99,12.05l-3.98,4.08-3.58,4.46c-1.05,1.59-2.18,3.15-3.2,4.77-.9,1.69-1.88,3.36-2.73,5.09-3.4,6.97-5.41,14.57-6.23,22.54Z"/><rect class="e" x="456.84" y="1479.3" width="397.58" height="10.11"/></g><g><circle class="i" cx="882.21" cy="1100.83" r="76.29"/><circle class="i" cx="1818.21" cy="1318.55" r="52.29"/><circle class="i" cx="1054.5" cy="755.4" r="22.29" transform="translate(-208.81 461.04) rotate(-22.5)"/><circle class="i" cx="2240.79" cy="875.4" r="36"/><circle class="i" cx="2439.64" cy="1509.69" r="36"/><circle class="i" cx="295.93" cy="1020.26" r="28.29"/><circle class="i" cx="739.93" cy="1573.98" r="28.29"/><circle class="i" cx="1732.5" cy="607.12" r="48.86" transform="translate(751.08 2158.55) rotate(-76.99)"/><circle class="i" cx="2071.93" cy="1640.83" r="48.86" transform="translate(-553.39 1945.66) rotate(-45)"/><circle class="i" cx="1224.21" cy="1276.55" r="29.14" transform="translate(-379.48 530.59) rotate(-21.25)"/><circle class="i" cx="1217.36" cy="825.69" r="29.14" transform="translate(114.65 1799.22) rotate(-75.59)"/><circle class="i" cx="1063.07" cy="1641.69" r="29.14" transform="translate(-849.48 1232.54) rotate(-45)"/><circle class="i" cx="1301.36" cy="1216.55" r="48"/><circle class="i" cx="911.36" cy="1455.69" r="18"/><circle class="i" cx="503.36" cy="1419.69" r="18"/><circle class="i" cx="1497.64" cy="507.69" r="18"/><circle class="i" cx="606.21" cy="951.69" r="18"/></g><g><g><rect class="ap" x="2134.5" y="803.69" width="373.71" height="685.71"/><rect class="ag" x="2148.21" y="828.85" width="346.29" height="635.39"/><rect class="ap" x="2144.79" y="938.83" width="356.57" height="12"/><rect class="ap" x="2144.79" y="1077.69" width="356.57" height="12"/><rect class="ap" x="2144.79" y="1216.55" width="356.57" height="12"/><rect class="ap" x="2144.79" y="1355.4" width="356.57" height="12"/></g><g><g><path class="w" d="M2171.89,1063h204.95c2.76,0,5,2.24,5,5v9.12h-214.95v-9.12c0-2.76,2.24-5,5-5Z"/><rect class="k" x="2166.89" y="1070.84" width="214.95" height="6.28"/></g><g><path class="g" d="M2171.89,1048.88h204.95c2.76,0,5,2.24,5,5v9.12h-214.95v-9.12c0-2.76,2.24-5,5-5Z"/><rect class="ai" x="2166.89" y="1056.72" width="214.95" height="6.28"/></g><g><path class="w" d="M2171.89,1034.76h204.95c2.76,0,5,2.24,5,5v9.12h-214.95v-9.12c0-2.76,2.24-5,5-5Z"/><rect class="k" x="2166.89" y="1042.6" width="214.95" height="6.28"/></g><g><path class="g" d="M2171.89,1020.63h204.95c2.76,0,5,2.24,5,5v9.12h-214.95v-9.12c0-2.76,2.24-5,5-5Z"/><rect class="ai" x="2166.89" y="1028.48" width="214.95" height="6.28"/></g><g><path class="w" d="M2171.89,1006.51h204.95c2.76,0,5,2.24,5,5v9.12h-214.95v-9.12c0-2.76,2.24-5,5-5Z"/><rect class="k" x="2166.89" y="1014.36" width="214.95" height="6.28"/></g><g><path class="g" d="M2171.89,992.39h204.95c2.76,0,5,2.24,5,5v9.12h-214.95v-9.12c0-2.76,2.24-5,5-5Z"/><rect class="ai" x="2166.89" y="1000.24" width="214.95" height="6.28"/></g><g><path class="w" d="M2171.89,978.27h204.95c2.76,0,5,2.24,5,5v9.12h-214.95v-9.12c0-2.76,2.24-5,5-5Z"/><rect class="k" x="2166.89" y="986.12" width="214.95" height="6.28"/></g></g><g><g><path class="w" d="M2171.89,1200.14h204.95c2.76,0,5,2.24,5,5v9.12h-214.95v-9.12c0-2.76,2.24-5,5-5Z"/><rect class="am" x="2166.89" y="1207.98" width="214.95" height="6.28"/></g><g><path class="g" d="M2171.89,1186.02h204.95c2.76,0,5,2.24,5,5v9.12h-214.95v-9.12c0-2.76,2.24-5,5-5Z"/><rect class="k" x="2166.89" y="1193.86" width="214.95" height="6.28"/></g><g><path class="w" d="M2171.89,1171.9h204.95c2.76,0,5,2.24,5,5v9.12h-214.95v-9.12c0-2.76,2.24-5,5-5Z"/><rect class="am" x="2166.89" y="1179.74" width="214.95" height="6.28"/></g><g><path class="g" d="M2171.89,1157.78h204.95c2.76,0,5,2.24,5,5v9.12h-214.95v-9.12c0-2.76,2.24-5,5-5Z"/><rect class="k" x="2166.89" y="1165.62" width="214.95" height="6.28"/></g><g><path class="w" d="M2171.89,1143.66h204.95c2.76,0,5,2.24,5,5v9.12h-214.95v-9.12c0-2.76,2.24-5,5-5Z"/><rect class="am" x="2166.89" y="1151.5" width="214.95" height="6.28"/></g><g><path class="g" d="M2171.89,1129.54h204.95c2.76,0,5,2.24,5,5v9.12h-214.95v-9.12c0-2.76,2.24-5,5-5Z"/><rect class="k" x="2166.89" y="1137.38" width="214.95" height="6.28"/></g><g><path class="w" d="M2171.89,1115.41h204.95c2.76,0,5,2.24,5,5v9.12h-214.95v-9.12c0-2.76,2.24-5,5-5Z"/><rect class="am" x="2166.89" y="1123.26" width="214.95" height="6.28"/></g></g><g><g><path class="ai" d="M2161.61,1451.22h144.46c2.76,0,5,2.24,5,5v6.61h-154.46v-6.61c0-2.76,2.24-5,5-5Z"/><rect class="u" x="2156.61" y="1457.67" width="154.46" height="5.16"/></g><g><path class="g" d="M2161.61,1439.61h144.46c2.76,0,5,2.24,5,5v6.61h-154.46v-6.61c0-2.76,2.24-5,5-5Z"/><rect class="am" x="2156.61" y="1446.06" width="154.46" height="5.16"/></g><g><path class="ai" d="M2161.61,1428h144.46c2.76,0,5,2.24,5,5v6.61h-154.46v-6.61c0-2.76,2.24-5,5-5Z"/><rect class="u" x="2156.61" y="1434.45" width="154.46" height="5.16"/></g><g><path class="g" d="M2161.61,1416.39h144.46c2.76,0,5,2.24,5,5v6.61h-154.46v-6.61c0-2.76,2.24-5,5-5Z"/><rect class="am" x="2156.61" y="1422.84" width="154.46" height="5.16"/></g><g><path class="ai" d="M2161.61,1404.78h144.46c2.76,0,5,2.24,5,5v6.61h-154.46v-6.61c0-2.76,2.24-5,5-5Z"/><rect class="u" x="2156.61" y="1411.23" width="154.46" height="5.16"/></g><g><path class="g" d="M2161.61,1393.16h144.46c2.76,0,5,2.24,5,5v6.61h-154.46v-6.61c0-2.76,2.24-5,5-5Z"/><rect class="am" x="2156.61" y="1399.61" width="154.46" height="5.16"/></g><g><path class="ai" d="M2161.61,1381.55h144.46c2.76,0,5,2.24,5,5v6.61h-154.46v-6.61c0-2.76,2.24-5,5-5Z"/><rect class="u" x="2156.61" y="1388" width="154.46" height="5.16"/></g></g><g><g><path class="am" d="M2333.04,1451.22h144.46c2.76,0,5,2.24,5,5v6.61h-154.46v-6.61c0-2.76,2.24-5,5-5Z"/><rect class="k" x="2328.04" y="1457.67" width="154.46" height="5.16"/></g><g><path class="g" d="M2333.04,1439.61h144.46c2.76,0,5,2.24,5,5v6.61h-154.46v-6.61c0-2.76,2.24-5,5-5Z"/><rect class="j" x="2328.04" y="1446.06" width="154.46" height="5.16"/></g><g><path class="am" d="M2333.04,1428h144.46c2.76,0,5,2.24,5,5v6.61h-154.46v-6.61c0-2.76,2.24-5,5-5Z"/><rect class="k" x="2328.04" y="1434.45" width="154.46" height="5.16"/></g><g><path class="g" d="M2333.04,1416.39h144.46c2.76,0,5,2.24,5,5v6.61h-154.46v-6.61c0-2.76,2.24-5,5-5Z"/><rect class="j" x="2328.04" y="1422.84" width="154.46" height="5.16"/></g><g><path class="am" d="M2333.04,1404.78h144.46c2.76,0,5,2.24,5,5v6.61h-154.46v-6.61c0-2.76,2.24-5,5-5Z"/><rect class="k" x="2328.04" y="1411.23" width="154.46" height="5.16"/></g><g><path class="g" d="M2333.04,1393.16h144.46c2.76,0,5,2.24,5,5v6.61h-154.46v-6.61c0-2.76,2.24-5,5-5Z"/><rect class="j" x="2328.04" y="1399.61" width="154.46" height="5.16"/></g><g><path class="am" d="M2333.04,1381.55h144.46c2.76,0,5,2.24,5,5v6.61h-154.46v-6.61c0-2.76,2.24-5,5-5Z"/><rect class="k" x="2328.04" y="1388" width="154.46" height="5.16"/></g></g><g><g><rect class="f" x="2158.14" y="1311.39" width="122.38" height="43.45"/><polygon class="aa" points="2199.95 1354.83 2158.14 1354.83 2158.14 1311.39 2199.95 1354.83"/><rect class="aa" x="2189.35" y="1328.52" width="59.35" height="7.34"/></g><g><rect class="f" x="2164.26" y="1274.06" width="105.14" height="37.33"/><rect class="v" x="2191.07" y="1288.78" width="50.99" height="6.31"/></g><g><polygon class="aa" points="2195.87 1310.98 2164.26 1311.39 2164.26 1274.06 2195.87 1310.98"/><rect class="aa" x="2191.07" y="1288.78" width="50.99" height="6.31"/></g></g><g><g><rect class="aa" x="2357" y="893.1" width="122.38" height="43.45"/><polygon class="a`" points="2398.81 936.55 2357 936.55 2357 893.1 2398.81 936.55"/><rect class="a`" x="2388.2" y="910.23" width="59.35" height="7.34"/></g><g><rect class="aa" x="2363.12" y="855.78" width="105.14" height="37.33"/><rect class="v" x="2389.93" y="870.5" width="50.99" height="6.31"/></g><g><polygon class="al" points="2394.73 892.69 2363.12 893.1 2363.12 855.78 2394.73 892.69"/><rect class="a`" x="2389.93" y="870.5" width="50.99" height="6.31"/></g></g><g><g><rect class="aa" x="2357" y="894.82" width="122.38" height="43.45"/><polygon class="s" points="2398.81 938.26 2357 938.26 2357 894.82 2398.81 938.26"/><rect class="s" x="2388.2" y="911.95" width="59.35" height="7.34"/></g><g><rect class="aa" x="2363.12" y="857.49" width="105.14" height="37.33"/><rect class="v" x="2389.93" y="872.21" width="50.99" height="6.31"/></g><g><polygon class="s" points="2394.73 894.41 2363.12 894.82 2363.12 857.49 2394.73 894.41"/><rect class="s" x="2389.93" y="872.21" width="50.99" height="6.31"/></g></g><g><g><rect class="f" x="2303.85" y="1295.2" width="167.96" height="59.63"/><polygon class="aa" points="2361.24 1354.83 2303.85 1354.83 2303.85 1295.2 2361.24 1354.83"/><rect class="aa" x="2346.68" y="1318.72" width="81.46" height="10.08"/></g><g><rect class="f" x="2312.25" y="1243.98" width="144.31" height="51.23"/><rect class="v" x="2349.05" y="1264.18" width="69.99" height="8.66"/></g><g><polygon class="aa" points="2355.64 1294.64 2312.25 1295.2 2312.25 1243.98 2355.64 1294.64"/><rect class="aa" x="2349.05" y="1264.18" width="69.99" height="8.66"/></g></g></g><g><path class="u" d="M613.66,1578.43s-2.41,24.15-2.16,32.78h59.79v-1.15c0-2.38-1.69-4.41-3.99-4.76-10.53-1.61-30.07-6.17-38.24-32.29l-15.39,5.42Z"/><path class="u" d="M753.53,1577.39s-2.41,24.15-2.16,32.78h59.79v-1.15c0-2.38-1.69-4.41-3.99-4.76-10.53-1.61-30.07-6.17-38.24-32.29l-15.39,5.42Z"/><path class="an" d="M940.7,1108.37c-2.58,1.08-5.39-7.53-8.83-5.59-.35,.2-.59,.44-.71,.71-4.84,.76-7.94-1.23-9.81-5.19,3.76-2.62,8.45-4.62,12.67-2.86,2.58,1.06,4.47,2.73,5.74,4.53h.02c2.57,3.59,2.66,7.68,.93,8.39Z"/><path class="an" d="M954.72,1125.27c-2.38,4.2-8.19-.33-9.27,.75-1.08,1.08,3.81,2.29,1.5,4.31-3.45,3.02-6.36-1.72-7.64-.42-1.3,1.28,2.6,1.85-.62,4.01s-4.82-1.12-5.74-1.21c-1.14-.13-1.14,1.96-1.72,2.36-6.58,4.53-28.81-18.31-28.81-18.31,0,0,.07-9.37,2.46-9.37s7.37-.57,9.75-3.15c1.08-1.17,3.59-3.78,6.73-5.98l9.81,5.19c-.17,.27-.2,.57-.18,.9,.2,2.66,5.32,7.2,9.73,10.94,.15,.13,.29,.26,.44,.37,3.78,3.21,9.71,4.55,12.46,6.36,1.32,.88,1.89,1.87,1.12,3.24Z"/><path class="am" d="M689.03,880.18c-22.96,8.4-16.72,46.28-1.42,76.79,15.61,31.14,20.94,57.21,73.06,104.64,13.59,12.37,26.32,2.64,42.53-22.74,0,0-31.75-55.18-59.64-108.95-25.56-49.29-46.61-52.63-54.52-49.74Z"/><path class="a`" d="M795.42,1026.09s64.24,53.67,111.87,80.18l-4.19,14.78s-72.33-15.23-137.3-55.79c-16.17-10.09,1.43-36.45,29.62-39.17Z"/><path class="k" d="M733.34,1184.08c4.06-181.58-23.2-274.97-41.46-316.63,23.32,18.63,50.74,57.72,60.17,108.04,13.62,72.69,25.55,196.29,25.55,196.29,0,0-18.46,5.9-44.27,12.29Z"/><path class="am" d="M770.43,1161.63s10.23,135.25,10.56,235.31c-14.59,18.15-31.27,26.24-52.48,12.41,0,0-27.63-80.98-42.4-109.57-14.77-28.58-27.15-95.28-8.1-120.05l92.42-18.1Z"/><g><polygon class="ag" points="953.85 1020.64 862.82 1020.64 725.31 1020.64 772.02 1208.74 862.82 1208.74 953.85 1208.74 1044.66 1208.74 1091.36 1020.64 953.85 1020.64"/><polygon class="q" points="953.85 1020.64 772.02 1208.74 862.82 1208.74 953.85 1208.74 1044.66 1208.74 1091.36 1020.64 953.85 1020.64"/><path class="aa" d="M799.74,964.33c-5.59-6.1-17.28-7.59-21.21-.3-1.79,3.31-1.96,8.1-5.46,9.48-1.76,.7-3.74,.18-5.59-.28-8.47-2.11-18.04-2.53-25.35,2.26-7.3,4.79-10.46,16.25-4.36,22.5,2.61,2.67,6.48,4.11,8.37,7.34,2.37,4.07,.65,9.23-1.37,13.49-8.11,17.1-20.67,33.56-19.79,52.47,.68,14.69,10.46,28.57,24.07,34.16-3.72-5.37,.4-13.35,6.45-15.8s12.94-.95,19.17,1.01c7.48,2.35,14.77,5.33,21.75,8.9,2.34-8.78,2.44-18.16,.29-26.99-.88-3.61-2.13-7.42-.92-10.93,1.67-4.85,7.31-7.05,12.4-7.64,5.09-.59,10.49-.26,15.06-2.56,10.96-5.53,10.32-21.43,17.14-31.63,7.82-11.69-11.76-11.97-18.87-17.69-12.47-10.01-11.63-26.68-21.79-37.76Z"/><path class="u" d="M826.83,998.67c-4.53,12.64-2.05,26.59,.48,39.78,15.28-2.43,30.67-4.89,45.2-10.19,8.47-3.08,16.85-7.17,25.87-7.4,4.54-.12,9.04,.76,13.55,1.35,15.57,2.04,31.36,.62,47.01-.79,3.54-.32-5.92-14.53-6.55-15.19-5.14-5.33-13.15-7.99-20.19-9.39-14.29-2.83-24.23-.81-36.91-8.7-22.95-14.28-56.24-23.58-68.46,10.52Z"/><path class="am" d="M909.48,956.41c3.24-5.1,9.74-6.84,15.64-8.18,7.5-1.7,15.13-3.41,22.8-2.83,7.67,.57,15.51,3.78,19.88,10.11,4.75,6.88,4.86,16.45,10.57,22.55,2.75,2.94,6.49,4.7,10.13,6.4,11.7,5.46,23.4,10.92,35.11,16.38-17.51,13.86-39.44,22.05-61.75,23.07-1.06,.05-2.19,.06-3.09-.5-1.39-.87-1.7-2.71-2.06-4.31-1.72-7.47-7.58-13.45-14.3-17.12-8.94-4.89-29.59-4.08-35.43-12.49-4.66-6.7-1.37-26.98,2.51-33.08Z"/><path class="g" d="M990,1023c19.4-2.06,38.8-4.13,58.2-6.19,16.67-1.77,36.9-1.97,46.11,12.03,9.3,14.14,.88,32.69-6.45,47.94-7.33,15.25-12.38,36.19,.71,46.91,2.43,1.99,5.4,3.49,7.08,6.15,4.04,6.4-1.57,14.26-3.6,21.55-4.15,14.92,11.51,31.41,26.63,28.03,13.02-20.8-10.27-48.31-2.97-71.74,3.46-11.1,13.18-19.02,18.61-29.3,7.74-14.65,5.91-32.87-.83-48.01-6.74-15.14-17.84-27.84-28.77-40.29-3.21-3.66-6.63-7.46-11.23-9.07-4.95-1.73-10.4-.61-15.49,.66-23.72,5.93-46.68,14.9-68.15,26.6-13.13,7.16-26.06,15.48-40.74,18.3l20.9-3.58Z"/><path class="ai" d="M819.07,962.05c-3.75,12.06-1.72,29.43,4.5,41.11,.16,.29,.57,.31,.78,.05,11.26-14.17,2.06-6.56,13.49-15.02,6.42-4.76,14.59-6.72,22.39-4.99,10.59,2.35,20.31,7.55,29.88,12.69,5.15,2.77,10.3,5.54,15.45,8.31,6.1,3.28,12.43,6.77,16.36,12.47,4.73,6.87,5.15,15.72,7.78,23.64,6.17,18.64,23.8,30.66,40.31,41.29-8.56-5.3-11.31-16.38-12.24-26.41-.93-10.03-.98-20.76-6.6-29.11-4.83-7.19-12.9-11.35-17.87-18.43-6.44-9.16-5.64-17.2-7.25-27.56-2.11-13.61-6.4-21.86-20-26.47-15.24-5.18-32.21-2.91-47.75-7.37-15.41-4.42-33.53-2.51-39.23,15.8Z"/><g><path class="n" d="M1037.77,1066.95c.28,2.52,.53,5.17-.42,7.52-.69,1.69-1.95,3.07-3.18,4.42-8.32,9.06-16.63,18.11-24.95,27.17-5.48,5.97-11.39,12.21-19.21,14.36-2.77,.76-5.83,.94-8.42-.3-3.9-1.86-5.79-6.53-5.74-10.85,.21-18.96,28.14-28.05,29.28-46.98,.21-3.49-.57-6.98-1.71-10.29-4.43-12.87-14.51-23.68-27.05-28.98,13.09,.5,36.9-5.52,47.64,2.23,10.96,7.91,12.46,29.73,13.77,41.7Z"/><g class="ah"><rect class="ak" x="993.25" y="1015.54" width="9.08" height="106.38" transform="translate(137.11 2250.67) rotate(-100.9)"/><rect class="ag" x="994.97" y="1024.45" width="9.08" height="106.38" transform="translate(130.4 2262.96) rotate(-100.9)"/><rect class="u" x="996.69" y="1033.37" width="9.08" height="106.38" transform="translate(123.69 2275.25) rotate(-100.9)"/><rect class="ag" x="998.4" y="1042.29" width="9.08" height="106.38" transform="translate(116.97 2287.54) rotate(-100.9)"/><rect class="u" x="1000.12" y="1051.2" width="9.08" height="106.38" transform="translate(110.26 2299.83) rotate(-100.9)"/><rect class="ag" x="1001.84" y="1060.12" width="9.08" height="106.38" transform="translate(103.55 2312.12) rotate(-100.9)"/><rect class="ak" x="1003.56" y="1069.04" width="9.08" height="106.38" transform="translate(96.84 2324.41) rotate(-100.9)"/><rect class="ai" x="1005.28" y="1077.95" width="9.08" height="106.38" transform="translate(90.12 2336.7) rotate(-100.9)"/><rect class="ak" x="1006.99" y="1086.87" width="9.08" height="106.38" transform="translate(83.41 2348.99) rotate(-100.9)"/><rect class="ak" x="988.01" y="953.83" width="9.08" height="106.38" transform="translate(-14.46 1999.56) rotate(-90)"/><rect class="ai" x="988.01" y="962.91" width="9.08" height="106.38" transform="translate(-23.55 2008.64) rotate(-90)"/><rect class="u" x="988.01" y="971.99" width="9.08" height="106.38" transform="translate(-32.63 2017.72) rotate(-90)"/><rect class="ag" x="988.01" y="981.07" width="9.08" height="106.38" transform="translate(-41.71 2026.81) rotate(-90)"/><rect class="u" x="988.01" y="990.15" width="9.08" height="106.38" transform="translate(-50.79 2035.89) rotate(-90)"/><rect class="ag" x="988.01" y="999.23" width="9.08" height="106.38" transform="translate(-59.87 2044.97) rotate(-90)"/><rect class="u" x="988.01" y="1008.31" width="9.08" height="106.38" transform="translate(-68.95 2054.05) rotate(-90)"/><rect class="ag" x="988.01" y="1017.39" width="9.08" height="106.38" transform="translate(-78.03 2063.13) rotate(-90)"/></g></g></g><path class="am" d="M780.99,1396.94s-1.3,125.54-6.98,183.63l-22.24,8.56c-8.62-63.7-27.59-126.45-23.26-179.78,13.62-25.03,31.56-26.78,52.48-12.41Z"/><path class="f" d="M743.24,1163.58s-39.61,156.07-72.36,250.62c-19.77,12.31-36.99,14.28-52.44-5.78,0,0,1.32-90.45,.06-122.6-2.19-56.13-3.13-97.85,23.04-114.94l101.7-7.3Z"/><path class="f" d="M672.73,1404.04s-20.74,125.09-36.83,181.21l-23.43,4.39c3.05-64.21-7.51-131.22,6.39-182.88,17.93-22.15,35.88-20.63,53.86-2.72Z"/><path class="x" d="M738.25,1176.52c-13.89,3.44-41.33,8.92-57.75,11.77,13.2-244.91-17.32-304.38-33.74-324.15,4.63-1.7,13.72-9.01,18.41-8.6,17.9,1.54,22.24,10.53,32.6,18.81h.01c18.26,41.66,44.52,120.59,40.46,302.17Z"/><path class="an" d="M648.31,826.95s7.58,24.76,2.72,39.93c0,0,2.49,8.79,15.25,7.51,12.76-1.28,15-7.34,16.27-9.57,0,0-5.61-7.34-7.12-24.89-1.5-17.55-27.13-12.98-27.13-12.98Z"/><path class="t" d="M686.14,749.68s9.53,11.36,9.16,26.58l-22.36-23.28,13.2-3.3Z"/><path class="t" d="M694.36,769.16c5.83,19.6,16.78,68.6-6.11,77.96-15.69,6.42-47.59-17.24-52.7-32.74-5.19-15.71-20.89-37.91,16.04-53.91,29.7-12.87,39.58-2.07,42.78,8.69Z"/><path class="s" d="M707.87,726.36s-23.7-7.68-49.01,1.31c-1.36,.5-2.74,1.03-4.11,1.61,0,0,.84-.97,2.1-2.36,2.68-2.93,7.33-7.74,10.22-9.22-.63,.19-8.37,2.67-17.93,7.43-3.86,1.91-8.01,4.19-12.11,6.85h0c-16.48,10.68-32.17,27.32-24.66,49.96,.43,1.29,.84,2.52,1.25,3.7,3.11,9.15,4.22,11.84,9.56,20.14,3.55,5.51,8.38,11.18,12.75,15.93,4.34,4.74,7.96,8.8,9.14,11.22,1.91,4,2.65,3.65,2.23,11.41,0,0,8.39-5.37,7.32-11.82-.18-1.1-.65-2.24-1.47-3.37-5.65-7.86-9.91-5.21-14.96-11.92-5.03-6.72-3.77-12.13-.48-14.02,.47-.25,1.09-.4,1.8-.45,1.94-.15,4.59,.45,7.1,1.72,2.43,1.2,4.71,2.96,6.06,5.18,.37,.65,.66,1.28,.87,1.96,0,0,.5-.38,1-1.14,1.03-1.57,2.14-4.68-.76-9.19-.84-1.33-2.04-2.77-3.68-4.34-9.97-9.52-9.28-18.61-1.94-26.03,5.89-5.95,19.5-9.43,28.73-12.36,4.85-1.54,8.93-4.22,12.58-6.57,9.8-6.23,15.62-12.74,16.1-13.29-.45,.16-6.64,2.58-15.43,1.99,0,0,13.56-8.55,17.74-14.31Z"/><path class="ap" d="M687,1193.94c-24.83,4.32-50.58,7-71.22,5.12,0,0-15.05-165.87-11.65-229.48,.85-15.89,.67-46.94,6.11-59.39,8.93-20.44,21.52-36.53,40.92-51.46,16.42,19.76,49.03,90.31,35.84,335.21Z"/><path class="an" d="M866.99,1132.33c-2.58,1.08-5.39-7.53-8.83-5.59-.35,.2-.59,.44-.71,.71-4.84,.76-7.94-1.23-9.81-5.19,3.76-2.62,8.45-4.62,12.67-2.86,2.58,1.06,4.47,2.73,5.74,4.53h.02c2.57,3.59,2.66,7.68,.93,8.39Z"/><path class="an" d="M881.01,1149.27c-2.38,4.2-8.19-.33-9.27,.75-1.08,1.08,3.81,2.29,1.5,4.31-3.45,3.02-6.36-1.72-7.64-.42-1.3,1.28,2.6,1.85-.62,4.01-3.23,2.16-4.82-1.12-5.74-1.21-1.14-.13-1.14,1.96-1.72,2.36-6.58,4.53-28.81-18.31-28.81-18.31,0,0,.07-9.37,2.46-9.37s7.37-.57,9.75-3.15c1.08-1.17,3.59-3.78,6.73-5.98l9.81,5.19c-.16,.27-.2,.57-.18,.9,.2,2.66,5.32,7.2,9.73,10.94,.15,.13,.29,.26,.44,.37,3.78,3.21,9.71,4.55,12.46,6.36,1.32,.88,1.89,1.87,1.12,3.24Z"/><path class="am" d="M618.75,904.18c-22.96,8.4-16.72,46.28-1.42,76.79,15.61,31.14,20.93,57.21,73.06,104.64,13.59,12.37,26.32,2.64,42.53-22.74,0,0-31.75-55.18-59.64-108.95-25.56-49.29-46.61-52.63-54.52-49.74Z"/><path class="am" d="M725.13,1050.09s64.24,53.67,111.87,80.18l-4.19,14.78s-72.33-15.23-137.3-55.79c-16.17-10.09,1.43-36.45,29.62-39.17Z"/></g></svg>