<?xml version="1.0" encoding="iso-8859-1"?>
<!-- Generator: Adobe Illustrator 19.0.0, SVG Export Plug-In . SVG Version: 6.00 Build 0)  -->
<svg version="1.1" id="Capa_1" xmlns="http://www.w3.org/2000/svg" xmlns:xlink="http://www.w3.org/1999/xlink" x="0px" y="0px"
	 viewBox="0 0 512 512" style="enable-background:new 0 0 512 512;" xml:space="preserve">
<path style="fill:#10BB67;" d="M512,75c0,41.4-34.6,75-76,75H76c-41.4,0-76-33.6-76-75S34.6,0,76,0h360C477.4,0,512,33.6,512,75z"/>
<path style="fill:#0CA656;" d="M512,75c0,41.4-34.6,75-76,75H256V0h180C477.4,0,512,33.6,512,75z"/>
<path style="fill:#CAE8F9;" d="M406,60H106c-8.401,0-15,6.599-15,15v392c0,3.9,1.5,7.8,4.501,10.499l30,30c5.7,6,15.298,6,20.999,0
	l19.501-19.2l19.501,19.2c5.7,6,15.298,6,20.999,0l19.501-19.2l19.501,19.2C248.2,510.5,252.1,512,256,512s7.8-1.5,10.499-4.501
	l19.501-19.2l19.501,19.2c5.7,6,15.298,6,20.999,0l19.501-19.2l19.501,19.2C368.2,510.5,372.1,512,376,512s7.8-1.5,10.499-4.501
	l30-30C419.5,474.8,421,470.9,421,467V75C421,66.599,414.401,60,406,60z"/>
<path style="fill:#B7E0F6;" d="M421,75v392c0,3.9-1.5,7.8-4.501,10.499l-30,30C383.8,510.5,379.9,512,376,512s-7.8-1.5-10.499-4.501
	L346,488.299l-19.501,19.2c-5.7,6-15.298,6-20.999,0l-19.5-19.2l-19.501,19.2C263.8,510.5,259.9,512,256,512V60h150
	C414.401,60,421,66.599,421,75z"/>
<path style="fill:#17ACE8;" d="M241,345c0,18.9-12.001,35.7-29.7,42.299H211V405c0,8.401-6.599,15-15,15s-15-6.599-15-15v-17.701
	c-9.901-3.3-19.2-9.598-27.299-19.499c-5.402-6.301-4.501-15.601,1.8-21c6.299-5.4,15.899-4.501,20.999,1.8
	c6.301,7.5,13.2,11.4,19.501,11.4c1.8,0,3.6-0.3,5.099-0.901c6-2.098,9.901-7.798,9.901-14.099c0-8.401-6.599-15-15-15
	c-24.901,0-45-20.099-45-45c0-17.999,10.8-34.501,27.599-41.4c0.601-0.3,1.5-0.3,2.401-0.601V225c0-8.401,6.599-15,15-15
	s15,6.599,15,15v17.999c7.8,2.701,15.3,6.601,22.2,13.2c6,5.7,6,15.3,0.3,21.301s-15.3,6-21.301,0.3c-5.1-5.099-10.8-7.8-16.2-7.8
	c-2.1,0-3.9,0.3-5.7,1.199C184.6,273.6,181,279,181,285c0,8.401,6.599,15,15,15C220.901,300,241,320.099,241,345z"/>
<path style="fill:#08469C;" d="M451,75c0,8.399-6.599,15-15,15H76c-8.401,0-15-6.601-15-15c0-8.401,6.599-15,15-15h360
	C444.401,60,451,66.599,451,75z"/>
<path style="fill:#17ACE8;" d="M361,165c0,8.399-6.599,15-15,15H166c-8.401,0-15-6.601-15-15c0-8.401,6.599-15,15-15h180
	C354.401,150,361,156.599,361,165z"/>
<g>
	<path style="fill:#1689FC;" d="M346,270h-60c-8.291,0-15-6.709-15-15s6.709-15,15-15h60c8.291,0,15,6.709,15,15
		C361,263.291,354.291,270,346,270z"/>
	<path style="fill:#1689FC;" d="M346,330h-60c-8.291,0-15-6.709-15-15s6.709-15,15-15h60c8.291,0,15,6.709,15,15
		S354.291,330,346,330z"/>
	<path style="fill:#1689FC;" d="M346,390h-60c-8.291,0-15-6.709-15-15s6.709-15,15-15h60c8.291,0,15,6.709,15,15
		S354.291,390,346,390z"/>
	<path style="fill:#1689FC;" d="M361,165c0,8.399-6.599,15-15,15h-90v-30h90C354.401,150,361,156.599,361,165z"/>
</g>
<path style="fill:#063E8B;" d="M451,75c0,8.399-6.599,15-15,15H256V60h180C444.401,60,451,66.599,451,75z"/>
<g>
</g>
<g>
</g>
<g>
</g>
<g>
</g>
<g>
</g>
<g>
</g>
<g>
</g>
<g>
</g>
<g>
</g>
<g>
</g>
<g>
</g>
<g>
</g>
<g>
</g>
<g>
</g>
<g>
</g>
</svg>
