<?xml version="1.0" encoding="UTF-8"?><svg id="a" xmlns="http://www.w3.org/2000/svg" viewBox="0 0 411.69 512"><defs><style>.b{fill:#fff;}.c{fill:#00c5fd;}.d{fill:#5082ff;}.e{fill:#91d4f2;}.f{fill:#516980;}.g{fill:#ffd576;}.h{fill:#00b4fd;}.i{fill:#396afc;}.j{fill:#ffc107;}.k{fill:#e8e8e8;}.l{fill:#78cbed;}.m{fill:#f2f3f3;}</style></defs><g><path class="m" d="M411.68,104.72V458.24c0,29.69-24.07,53.76-53.76,53.76H193.71c-74.64-111.02-70.8-321.99-29.91-423.3l46.96-4.6,200.93,20.61Z"/><path class="k" d="M193.71,512H53.76C24.07,512,0,487.93,0,458.24V104.72l163.8-16.02c-33.43,136.63-21.43,310.05,29.91,423.3Z"/><path class="d" d="M357.93,0H53.76C24.07,0,0,24.07,0,53.76v50.96H411.69V53.76c0-29.69-24.07-53.76-53.76-53.76Z"/><path class="d" d="M411.68,53.76v50.96H160.12c-2.81-37.06,17.35-84.24,34.71-104.72h163.1c29.69,0,53.76,24.07,53.76,53.76h0Z"/><path class="i" d="M194.83,0c-15.02,31.13-26.55,66.69-34.71,104.72H0V53.76C0,24.07,24.07,0,53.76,0H194.83Z"/><path class="g" d="M370.02,52.36c0,7.92-4.99,14.66-11.99,17.26-8.95-2.17-13.74-9.34-13.74-17.26s3.91-15.5,13.74-17.26c7,2.61,11.99,9.35,11.99,17.26Z"/><path class="j" d="M358.03,69.62c-2,.75-4.17,1.16-6.43,1.16-10.18,0-18.43-8.24-18.43-18.42s8.25-18.42,18.43-18.42c2.26,0,4.43,.41,6.43,1.16-7.01,2.6-12,9.35-12,17.26s4.99,14.66,12,17.26Z"/><path class="g" d="M298.37,52.36c0,7.86-4.92,14.57-11.85,17.21-9.36-2.03-13.76-9.35-13.76-17.21s3.62-15.21,13.76-17.21c6.93,2.65,11.85,9.36,11.85,17.21Z"/><path class="j" d="M286.52,69.57c-2.04,.78-4.26,1.21-6.58,1.21-10.17,0-18.42-8.24-18.42-18.42s8.25-18.42,18.42-18.42c2.32,0,4.54,.43,6.58,1.21-6.93,2.65-11.85,9.36-11.85,17.21s4.92,14.57,11.85,17.21Z"/><path class="d" d="M342.47,339.6c0,58.64-36.94,108.65-88.83,128.03-2.57,.96-5.16,1.83-7.79,2.64-2.65,.81-5.32,1.55-8.02,2.18-17.03-.69-27.66-11.85-27.66-24.93,0-11.69,9.15-23.74,23.63-23.3l-4.64-171.07c-15.04-5.23-21.72-12.88-21.72-24.28,0-12.2,10.14-23.25,23.98-23.5,1.35,.26,2.68,.52,4.01,.82,5.12,1.13,10.14,2.54,15.02,4.23,53.56,18.48,92.02,69.33,92.02,129.18Z"/><path class="i" d="M237.82,472.45c-10.26,2.46-20.96,3.77-31.98,3.77-75.46,0-136.62-61.17-136.62-136.62s61.16-136.62,136.62-136.62c8.75,0,17.3,.82,25.58,2.39-11.69,1.82-20.64,11.93-20.64,24.13,0,11.39,7.81,20.96,18.37,23.65l4.64,171.07c-10.97,2.39-19.18,12.16-19.18,23.85,0,13.08,10.29,23.77,23.21,24.38h0Z"/><path class="e" d="M275.23,282.03c-12.97,15.62-20.77,35.67-20.77,57.55-16.29,14.36-39.55,19.25-58.26,12.73-10.27-3.74-19.87-10.23-30.14-13.03-4.67-1.45-9.19-2.55-13.62-3.28-10.05-41.1,31.5-83.64,71.72-84.7,20.39,4.2,38.25,15.3,51.07,30.73Z"/><path class="l" d="M224.16,251.3c-39.86,8.24-70.11,42.85-71.72,84.7-12.46-2.03-24.24-1.01-36.74,4.14-.35-49.98,40.18-90.73,90.14-90.71,6.27,0,12.4,.64,18.32,1.87h0Z"/><path class="c" d="M275.23,397.17c-12.82,15.42-30.68,26.52-51.07,30.72-48.88-7.58-74.35-44.46-74.6-87.71-.02-3.29,.74-6.93,3.26-9.77,5.22,.27,10.46,1.18,15.56,2.77,10.27,2.8,18.68,8.41,28.95,12.15,18.71,6.52,39.43,2.85,57.13-5.74,0,21.9,7.8,41.97,20.77,57.59h0Z"/><path class="h" d="M224.16,427.89c-5.91,1.23-12.04,1.86-18.32,1.86-49.6,0-89.85-40.06-90.14-89.61,11.12-7.11,24.13-10.42,37.12-9.74-.32,3.2-.47,6.46-.45,9.74,.25,43.26,30.98,79.29,71.79,87.74h0Z"/><path class="g" d="M199.18,52.36c0,4.67-1.88,8.88-4.95,11.93-3.06,3.06-7.27,4.94-11.93,4.94h-13.36c.03-11.73,2.99-24.28,10.94-33.76h2.42c9.31,0,16.87,7.56,16.87,16.88h0Z"/><path class="j" d="M179.88,35.48c-4,10.89-7.64,22.16-10.94,33.76H62.15c-9.32,0-16.89-7.55-16.89-16.87,0-4.67,1.89-8.88,4.94-11.94,3.06-3.05,7.28-4.94,11.94-4.94h117.73Z"/></g><g><ellipse class="b" cx="126.29" cy="175.13" rx="29.35" ry="23.38"/><ellipse class="b" cx="285.4" cy="175.13" rx="29.36" ry="23.38"/><path class="f" d="M143.39,160.12c-4.14,0-7.5-3.36-7.5-7.5v-12c0-4.14,3.36-7.5,7.5-7.5s7.5,3.36,7.5,7.5v12c0,4.14-3.36,7.5-7.5,7.5Z"/><path class="f" d="M268.29,160.12c-4.14,0-7.5-3.36-7.5-7.5v-12c0-4.14,3.36-7.5,7.5-7.5s7.5,3.36,7.5,7.5v12c0,4.14-3.36,7.5-7.5,7.5Z"/><path class="f" d="M205.84,167.27c-8.48,0-16.54-3.67-22.12-10.07-2.72-3.12-2.4-7.86,.73-10.58,3.12-2.72,7.86-2.4,10.58,.73,2.73,3.13,6.67,4.93,10.81,4.93s8.08-1.8,10.81-4.93c2.72-3.12,7.46-3.45,10.58-.73,3.12,2.72,3.45,7.46,.73,10.58-5.58,6.4-13.64,10.07-22.12,10.07h0Z"/></g></svg>